<?xml version="1.0" encoding="UTF-8" ?>
<!DOCTYPE svg PUBLIC "-//W3C//DTD SVG 1.1//EN" "http://www.w3.org/Graphics/SVG/1.1/DTD/svg11.dtd">
<svg width="712pt" height="520pt" viewBox="0 0 712 520" version="1.1" xmlns="http://www.w3.org/2000/svg">
<path fill="#000000" opacity="1.00" d=" M 442.12 26.66 C 454.05 -2.72 499.62 3.98 517.01 24.94 C 530.74 42.47 520.43 66.68 508.04 81.98 C 539.02 91.07 568.47 106.18 593.01 127.27 C 605.10 120.11 602.02 102.26 592.86 94.10 C 584.17 86.15 571.40 86.10 561.81 79.59 C 557.14 67.15 567.36 52.69 580.74 53.13 C 607.89 50.54 640.32 73.82 635.63 103.34 C 631.66 118.89 618.65 129.92 604.92 137.09 C 609.87 143.77 616.42 149.18 621.42 155.89 C 640.28 152.03 657.62 142.45 676.59 139.10 C 683.06 157.13 692.55 174.12 698.05 192.46 C 692.58 194.72 684.02 194.66 680.15 198.99 C 711.40 243.29 713.31 306.20 684.06 352.06 C 677.21 364.06 663.48 370.94 659.91 384.89 C 629.77 446.57 561.60 477.30 497.36 489.36 C 432.05 502.10 364.05 498.98 299.52 484.30 C 276.07 493.80 253.22 505.31 229.51 513.91 C 226.38 505.15 221.81 496.99 218.83 488.18 C 232.84 482.60 247.76 475.99 260.63 470.11 C 250.41 464.45 237.99 460.09 227.97 453.06 C 204.36 461.85 182.00 473.84 158.21 482.15 C 154.70 473.82 151.27 465.47 147.81 457.12 C 165.13 448.17 183.72 441.76 201.21 433.13 C 171.75 408.15 153.55 371.30 148.74 333.24 C 104.35 335.56 54.73 340.62 15.19 315.94 C 5.71 312.42 0.75 294.73 14.06 292.94 C 50.41 282.10 88.99 284.10 126.25 278.68 C 96.97 255.13 62.21 238.28 34.94 212.03 C 28.94 207.56 27.83 197.10 35.63 193.64 C 57.02 184.50 80.00 193.92 100.79 200.34 C 91.02 163.43 116.27 124.59 150.73 111.78 C 158.15 110.28 157.99 100.96 161.97 95.99 C 177.77 68.71 211.81 55.16 242.32 58.52 C 259.09 64.95 273.65 50.56 290.41 51.10 C 318.32 47.28 343.68 62.75 363.30 80.84 C 405.21 71.30 449.78 67.05 491.86 78.12 C 503.63 59.03 480.34 38.21 460.98 44.02 C 449.19 48.27 437.24 39.69 442.12 26.66 M 279.77 74.02 C 290.07 81.30 299.24 90.01 307.04 99.94 C 317.20 95.07 328.39 92.54 338.25 87.16 C 321.90 74.13 300.30 67.72 279.77 74.02 M 179.97 106.70 C 188.69 105.99 197.08 109.88 205.62 109.69 C 217.69 113.67 228.85 120.57 240.29 125.22 C 242.76 128.65 246.49 130.83 249.90 133.22 C 255.64 137.96 261.16 142.96 266.74 147.91 C 270.89 152.90 275.20 157.78 279.84 162.33 C 300.99 189.43 317.46 219.67 330.72 251.31 C 329.29 223.14 324.40 195.14 317.32 167.85 C 316.43 164.67 315.27 161.52 313.18 158.91 C 313.37 155.01 311.83 151.39 310.24 147.92 C 306.82 141.10 304.17 133.80 299.34 127.79 L 299.95 127.48 C 295.09 120.70 291.45 112.34 284.81 107.12 C 277.74 97.84 267.75 90.96 257.40 85.74 C 250.04 81.36 241.76 78.94 233.10 79.99 C 212.34 78.18 190.99 89.16 179.97 106.70 M 319.05 118.09 C 319.84 119.60 320.62 121.12 321.41 122.63 L 322.25 122.61 C 324.46 128.67 327.24 134.50 330.07 140.29 C 333.48 149.95 337.31 159.53 339.34 169.61 L 340.11 169.84 C 340.65 174.08 341.64 178.23 342.73 182.36 C 350.39 222.57 355.33 264.09 349.76 304.88 C 290.21 300.04 229.46 293.27 173.89 269.84 C 166.76 297.10 166.21 327.14 175.06 353.92 C 182.33 384.99 204.41 410.88 229.98 429.02 C 271.60 458.20 322.68 469.60 372.51 474.53 C 427.32 478.46 483.24 474.50 535.83 457.84 C 574.30 444.83 611.69 422.93 633.99 388.02 C 609.99 391.92 585.10 381.62 569.75 362.99 C 564.56 367.94 559.43 372.95 554.16 377.80 C 544.33 385.55 532.85 390.69 521.29 395.20 C 491.30 401.23 458.64 391.99 437.71 369.29 C 391.39 321.66 391.96 238.52 436.90 190.14 C 435.28 189.49 433.66 188.84 432.06 188.19 C 425.37 185.95 418.62 183.84 411.87 181.82 C 416.97 163.96 424.20 146.76 429.29 128.89 C 475.60 142.77 521.40 158.56 567.28 173.88 C 575.93 172.87 584.04 169.01 592.29 166.32 C 594.86 165.51 597.44 164.71 600.02 163.90 C 531.72 84.54 410.06 75.50 319.05 118.09 M 174.13 128.23 C 174.31 131.99 174.51 135.77 174.73 139.54 C 175.91 150.36 181.20 160.12 186.50 169.42 L 186.64 168.61 C 188.82 174.04 193.33 178.07 197.21 182.28 C 200.29 188.65 206.18 193.71 211.60 198.26 C 213.01 199.58 214.44 200.88 215.87 202.19 C 244.14 227.90 277.34 248.02 311.95 264.06 C 300.29 231.14 282.79 199.02 260.24 173.05 C 257.37 168.28 253.35 164.36 249.22 160.68 C 240.44 153.20 231.89 144.48 221.06 140.22 C 217.49 136.87 212.80 134.98 208.17 133.60 C 200.30 129.95 191.85 127.98 183.16 127.88 C 180.16 128.01 177.11 128.09 174.13 128.23 M 132.22 214.83 C 144.66 230.54 162.19 241.98 180.76 249.22 C 215.41 265.25 253.57 272.77 291.22 277.83 C 258.68 260.87 226.95 241.46 199.79 216.60 C 187.01 204.32 175.40 190.93 165.44 176.26 C 159.61 162.85 152.29 149.28 152.75 134.01 C 122.54 147.17 108.60 189.58 132.22 214.83 M 461.27 198.24 C 458.97 199.12 457.26 201.03 456.04 203.10 C 410.81 244.40 414.63 327.84 464.94 364.08 C 479.96 374.51 501.63 379.36 518.16 372.01 C 542.14 367.26 556.74 345.04 569.03 325.84 C 575.16 331.12 577.30 339.71 583.09 345.41 C 595.33 362.22 618.81 373.95 638.97 363.77 C 693.42 333.49 696.20 250.29 657.46 205.78 C 630.02 213.71 603.20 223.93 575.66 231.73 C 566.75 234.89 557.94 229.52 549.33 227.67 C 520.52 216.27 490.51 208.39 461.27 198.24 Z" />
<path fill="#797979" opacity="0.48" d=" M 279.77 74.02 C 300.30 67.72 321.90 74.13 338.25 87.16 C 328.39 92.54 317.20 95.07 307.04 99.94 C 299.24 90.01 290.07 81.30 279.77 74.02 Z" />
<path fill="#797979" opacity="0.48" d=" M 179.97 106.70 C 190.99 89.16 212.34 78.18 233.10 79.99 C 226.25 92.27 221.59 107.05 205.62 109.69 C 197.08 109.88 188.69 105.99 179.97 106.70 Z" />
<path fill="#7a7a7a" opacity="1.00" d=" M 233.10 79.99 C 241.76 78.94 250.04 81.36 257.40 85.74 C 253.52 89.89 249.73 94.12 246.00 98.40 C 259.42 98.80 272.22 102.85 284.81 107.12 C 291.45 112.34 295.09 120.70 299.95 127.48 L 299.34 127.79 C 287.84 133.40 277.07 140.38 266.74 147.91 C 261.16 142.96 255.64 137.96 249.90 133.22 C 254.90 130.03 259.96 126.88 264.47 123.00 C 256.72 120.32 248.48 119.88 240.35 120.30 C 240.33 121.53 240.31 123.99 240.29 125.22 C 228.85 120.57 217.69 113.67 205.62 109.69 C 221.59 107.05 226.25 92.27 233.10 79.99 Z" />
<path fill="#bababa" opacity="0.73" d=" M 257.40 85.74 C 267.75 90.96 277.74 97.84 284.81 107.12 C 272.22 102.85 259.42 98.80 246.00 98.40 C 249.73 94.12 253.52 89.89 257.40 85.74 Z" />
<path fill="#ff6699" opacity="1.00" d=" M 319.05 118.09 C 410.06 75.50 531.72 84.54 600.02 163.90 C 597.44 164.71 594.86 165.51 592.29 166.32 C 516.80 112.12 415.48 110.31 330.07 140.29 C 327.24 134.50 324.46 128.67 322.25 122.61 C 404.67 103.85 495.53 102.96 572.07 142.96 C 500.92 89.32 401.24 89.27 321.41 122.63 C 320.62 121.12 319.84 119.60 319.05 118.09 Z" />
<path fill="#ffffff" opacity="1.00" d=" M 321.41 122.63 C 401.24 89.27 500.92 89.32 572.07 142.96 C 495.53 102.96 404.67 103.85 322.25 122.61 L 321.41 122.63 Z" />
<path fill="#dbdbdb" opacity="0.86" d=" M 240.35 120.30 C 248.48 119.88 256.72 120.32 264.47 123.00 C 259.96 126.88 254.90 130.03 249.90 133.22 C 246.49 130.83 242.76 128.65 240.29 125.22 C 240.31 123.99 240.33 121.53 240.35 120.30 Z" />
<path fill="#ec1c24" opacity="1.00" d=" M 330.07 140.29 C 415.48 110.31 516.80 112.12 592.29 166.32 C 584.04 169.01 575.93 172.87 567.28 173.88 C 521.40 158.56 475.60 142.77 429.29 128.89 C 424.20 146.76 416.97 163.96 411.87 181.82 C 418.62 183.84 425.37 185.95 432.06 188.19 C 393.86 231.82 386.71 297.28 407.69 350.33 C 418.06 376.81 438.26 402.23 466.97 409.28 C 486.15 414.62 506.37 407.37 521.29 395.20 C 532.85 390.69 544.33 385.55 554.16 377.80 C 567.05 390.23 581.47 403.26 601.03 401.72 C 567.05 426.52 526.51 443.17 484.34 445.83 C 456.18 440.91 434.00 419.75 406.20 413.51 C 388.53 409.89 375.70 427.44 358.27 424.80 C 338.50 424.67 323.98 406.70 304.34 406.10 C 296.13 407.97 288.38 414.65 279.48 410.82 C 267.47 404.34 261.65 390.47 249.43 384.26 C 238.34 379.81 227.16 391.38 216.37 384.92 C 201.06 376.88 187.75 365.54 175.06 353.92 C 166.21 327.14 166.76 297.10 173.89 269.84 C 229.46 293.27 290.21 300.04 349.76 304.88 C 355.33 264.09 350.39 222.57 342.73 182.36 C 349.04 177.63 349.28 170.09 340.11 169.84 L 339.34 169.61 C 337.31 159.53 333.48 149.95 330.07 140.29 M 360.75 142.54 C 352.74 143.97 337.70 147.65 339.58 158.12 C 351.57 167.65 371.57 164.00 383.04 154.60 C 387.76 141.82 368.40 140.86 360.75 142.54 M 369.18 167.15 C 370.76 180.47 396.80 179.76 401.10 169.11 C 394.60 159.06 378.52 162.21 369.18 167.15 M 369.10 362.10 C 362.27 363.69 364.33 375.07 370.83 375.57 C 383.88 377.32 398.76 371.41 406.23 360.23 C 393.99 360.68 380.82 357.70 369.10 362.10 M 379.05 397.16 C 374.37 405.82 389.99 406.70 394.72 405.98 C 411.55 406.56 415.22 386.87 415.87 373.93 C 403.01 380.36 388.47 385.90 379.05 397.16 Z" />
<path fill="#bababa" opacity="0.73" d=" M 174.13 128.23 C 177.11 128.09 180.16 128.01 183.16 127.88 C 180.38 131.79 177.55 135.66 174.73 139.54 C 174.51 135.77 174.31 131.99 174.13 128.23 Z" />
<path fill="#bababa" opacity="1.00" d=" M 183.16 127.88 C 191.85 127.98 200.30 129.95 208.17 133.60 C 196.89 141.97 188.84 154.69 186.64 168.61 L 186.50 169.42 C 181.20 160.12 175.91 150.36 174.73 139.54 C 177.55 135.66 180.38 131.79 183.16 127.88 Z" />
<path fill="#ffafca" opacity="1.00" d=" M 266.74 147.91 C 277.07 140.38 287.84 133.40 299.34 127.79 C 304.17 133.80 306.82 141.10 310.24 147.92 C 300.17 152.87 289.94 157.46 279.84 162.33 C 275.20 157.78 270.89 152.90 266.74 147.91 Z" />
<path fill="#797979" opacity="0.48" d=" M 132.22 214.83 C 108.60 189.58 122.54 147.17 152.75 134.01 C 152.29 149.28 159.61 162.85 165.44 176.26 C 163.89 189.41 170.39 201.41 175.79 212.90 C 171.93 219.78 168.26 226.76 164.82 233.86 C 154.06 227.34 143.61 220.25 132.22 214.83 Z" />
<path fill="#dbdbdb" opacity="0.86" d=" M 186.64 168.61 C 188.84 154.69 196.89 141.97 208.17 133.60 C 212.80 134.98 217.49 136.87 221.06 140.22 C 222.29 144.83 223.34 149.51 224.64 154.11 C 215.18 163.18 205.81 172.38 197.21 182.28 C 193.33 178.07 188.82 174.04 186.64 168.61 Z" />
<path fill="#bababa" opacity="1.00" d=" M 221.06 140.22 C 231.89 144.48 240.44 153.20 249.22 160.68 C 235.85 172.33 222.97 184.62 211.60 198.26 C 206.18 193.71 200.29 188.65 197.21 182.28 C 205.81 172.38 215.18 163.18 224.64 154.11 C 223.34 149.51 222.29 144.83 221.06 140.22 Z" />
<path fill="#660000" opacity="1.00" d=" M 360.75 142.54 C 368.40 140.86 387.76 141.82 383.04 154.60 C 371.57 164.00 351.57 167.65 339.58 158.12 C 337.70 147.65 352.74 143.97 360.75 142.54 Z" />
<path fill="#f5898d" opacity="1.00" d=" M 310.24 147.92 C 311.83 151.39 313.37 155.01 313.18 158.91 C 304.81 161.30 290.64 163.39 291.88 175.13 C 301.30 177.81 310.46 174.18 317.32 167.85 C 324.40 195.14 329.29 223.14 330.72 251.31 C 317.46 219.67 300.99 189.43 279.84 162.33 C 289.94 157.46 300.17 152.87 310.24 147.92 Z" />
<path fill="#af7a7a" opacity="1.00" d=" M 291.88 175.13 C 290.64 163.39 304.81 161.30 313.18 158.91 C 315.27 161.52 316.43 164.67 317.32 167.85 C 310.46 174.18 301.30 177.81 291.88 175.13 Z" />
<path fill="#ffd5e3" opacity="1.00" d=" M 211.60 198.26 C 222.97 184.62 235.85 172.33 249.22 160.68 C 253.35 164.36 257.37 168.28 260.24 173.05 C 244.76 181.69 230.39 192.07 215.87 202.19 C 214.44 200.88 213.01 199.58 211.60 198.26 Z" />
<path fill="#660000" opacity="1.00" d=" M 369.18 167.15 C 378.52 162.21 394.60 159.06 401.10 169.11 C 396.80 179.76 370.76 180.47 369.18 167.15 Z" />
<path fill="#660000" opacity="1.00" d=" M 340.11 169.84 C 349.28 170.09 349.04 177.63 342.73 182.36 C 341.64 178.23 340.65 174.08 340.11 169.84 Z" />
<path fill="#fac1c4" opacity="1.00" d=" M 260.24 173.05 C 282.79 199.02 300.29 231.14 311.95 264.06 C 277.34 248.02 244.14 227.90 215.87 202.19 C 230.39 192.07 244.76 181.69 260.24 173.05 Z" />
<path fill="#7a7a7a" opacity="1.00" d=" M 175.79 212.90 C 170.39 201.41 163.89 189.41 165.44 176.26 C 175.40 190.93 187.01 204.32 199.79 216.60 C 190.98 225.84 186.38 237.97 180.76 249.22 C 162.19 241.98 144.66 230.54 132.22 214.83 C 143.61 220.25 154.06 227.34 164.82 233.86 C 168.26 226.76 171.93 219.78 175.79 212.90 Z" />
<path fill="#660000" opacity="1.00" d=" M 432.06 188.19 C 433.66 188.84 435.28 189.49 436.90 190.14 C 391.96 238.52 391.39 321.66 437.71 369.29 C 458.64 391.99 491.30 401.23 521.29 395.20 C 506.37 407.37 486.15 414.62 466.97 409.28 C 438.26 402.23 418.06 376.81 407.69 350.33 C 386.71 297.28 393.86 231.82 432.06 188.19 Z" />
<path fill="#ffffff" opacity="1.00" d=" M 461.27 198.24 C 490.51 208.39 520.52 216.27 549.33 227.67 C 557.94 229.52 566.75 234.89 575.66 231.73 C 603.20 223.93 630.02 213.71 657.46 205.78 C 696.20 250.29 693.42 333.49 638.97 363.77 C 620.35 360.16 605.51 346.98 594.93 331.81 C 591.13 336.47 587.59 341.39 583.09 345.41 C 577.30 339.71 575.16 331.12 569.03 325.84 C 556.74 345.04 542.14 367.26 518.16 372.01 C 495.22 369.26 474.66 355.17 461.42 336.57 C 433.76 298.20 432.84 243.85 456.04 203.10 C 457.26 201.03 458.97 199.12 461.27 198.24 M 527.95 256.96 C 516.58 274.01 516.30 304.13 535.72 314.91 C 551.85 316.56 555.90 295.62 556.13 283.38 C 551.31 282.72 546.51 282.09 541.69 281.53 C 544.79 276.41 549.10 272.18 552.73 267.45 C 554.23 254.79 535.20 244.83 527.95 256.96 M 645.85 256.61 C 634.73 272.40 635.23 297.38 649.43 311.34 C 662.29 309.70 664.92 292.89 664.11 282.49 C 660.63 281.87 657.24 281.29 653.78 280.70 C 655.36 277.97 657.20 275.42 659.11 272.91 C 667.71 265.61 654.97 247.23 645.85 256.61 Z" />
<path fill="#d0d2d3" opacity="1.00" d=" M 464.94 364.08 C 414.63 327.84 410.81 244.40 456.04 203.10 C 432.84 243.85 433.76 298.20 461.42 336.57 C 474.66 355.17 495.22 369.26 518.16 372.01 C 501.63 379.36 479.96 374.51 464.94 364.08 Z" />
<path fill="#f5898d" opacity="1.00" d=" M 180.76 249.22 C 186.38 237.97 190.98 225.84 199.79 216.60 C 226.95 241.46 258.68 260.87 291.22 277.83 C 253.57 272.77 215.41 265.25 180.76 249.22 Z" />
<path fill="#000000" opacity="1.00" d=" M 527.95 256.96 C 535.20 244.83 554.23 254.79 552.73 267.45 C 549.10 272.18 544.79 276.41 541.69 281.53 C 546.51 282.09 551.31 282.72 556.13 283.38 C 555.90 295.62 551.85 316.56 535.72 314.91 C 516.30 304.13 516.58 274.01 527.95 256.96 Z" />
<path fill="#000000" opacity="1.00" d=" M 645.85 256.61 C 654.97 247.23 667.71 265.61 659.11 272.91 C 657.20 275.42 655.36 277.97 653.78 280.70 C 657.24 281.29 660.63 281.87 664.11 282.49 C 664.92 292.89 662.29 309.70 649.43 311.34 C 635.23 297.38 634.73 272.40 645.85 256.61 Z" />
<path fill="#d0d2d3" opacity="1.00" d=" M 583.09 345.41 C 587.59 341.39 591.13 336.47 594.93 331.81 C 605.51 346.98 620.35 360.16 638.97 363.77 C 618.81 373.95 595.33 362.22 583.09 345.41 Z" />
<path fill="#660000" opacity="1.00" d=" M 175.06 353.92 C 187.75 365.54 201.06 376.88 216.37 384.92 C 227.16 391.38 238.34 379.81 249.43 384.26 C 261.65 390.47 267.47 404.34 279.48 410.82 C 288.38 414.65 296.13 407.97 304.34 406.10 C 323.98 406.70 338.50 424.67 358.27 424.80 C 375.70 427.44 388.53 409.89 406.20 413.51 C 434.00 419.75 456.18 440.91 484.34 445.83 C 526.51 443.17 567.05 426.52 601.03 401.72 C 581.47 403.26 567.05 390.23 554.16 377.80 C 559.43 372.95 564.56 367.94 569.75 362.99 C 585.10 381.62 609.99 391.92 633.99 388.02 C 611.69 422.93 574.30 444.83 535.83 457.84 C 483.24 474.50 427.32 478.46 372.51 474.53 C 322.68 469.60 271.60 458.20 229.98 429.02 C 204.41 410.88 182.33 384.99 175.06 353.92 Z" />
<path fill="#000000" opacity="1.00" d=" M 369.10 362.10 C 380.82 357.70 393.99 360.68 406.23 360.23 C 398.76 371.41 383.88 377.32 370.83 375.57 C 364.33 375.07 362.27 363.69 369.10 362.10 Z" />
<path fill="#000000" opacity="1.00" d=" M 379.05 397.16 C 388.47 385.90 403.01 380.36 415.87 373.93 C 415.22 386.87 411.55 406.56 394.72 405.98 C 389.99 406.70 374.37 405.82 379.05 397.16 Z" />
</svg>
